<svg width="42" height="42" viewBox="0 0 42 42" fill="none" xmlns="http://www.w3.org/2000/svg">
<rect opacity="0.25" x="0.5625" y="1.28857" width="40.9099" height="39.9992" rx="19" stroke="white"/>
<path fill-rule="evenodd" clip-rule="evenodd" d="M17.2561 28.121H14.0322V18.6597H17.2561V28.121Z" fill="white"/>
<path fill-rule="evenodd" clip-rule="evenodd" d="M15.6346 16.5571H15.6162C14.6542 16.5571 14.0322 15.8559 14.0322 14.9797C14.0322 14.0849 14.6731 13.4033 15.6534 13.4033C16.6338 13.4033 17.2375 14.0849 17.2561 14.9797C17.2561 15.8559 16.6338 16.5571 15.6346 16.5571Z" fill="white"/>
<path fill-rule="evenodd" clip-rule="evenodd" d="M29.0767 28.1208H25.9088V23.1752C25.9088 21.933 25.4503 21.0853 24.3035 21.0853C23.4283 21.0853 22.907 21.6568 22.678 22.2087C22.5942 22.4065 22.5737 22.6821 22.5737 22.9584V28.121H19.4053C19.4053 28.121 19.447 19.7444 19.4053 18.877H22.5737V20.1863C22.9941 19.5569 23.7472 18.6597 25.4292 18.6597C27.5139 18.6597 29.0768 19.9812 29.0768 22.8205L29.0767 28.1208Z" fill="white"/>
</svg>
