<svg width="69" height="69" viewBox="0 0 69 69" fill="none" xmlns="http://www.w3.org/2000/svg">
<path d="M51.6925 31.0213V42.5213C51.6925 43.2688 51.6638 43.9875 51.5775 44.6775C50.9163 52.44 46.345 56.2925 37.9213 56.2925H36.7713C36.0525 56.2925 35.3625 56.6375 34.9312 57.2125L31.4813 61.8125C29.9575 63.8537 27.485 63.8537 25.9612 61.8125L22.5112 57.2125C22.1375 56.7237 21.3038 56.2925 20.6713 56.2925H19.5213C10.35 56.2925 5.75 54.0213 5.75 42.5213V31.0213C5.75 22.5975 9.63127 18.0263 17.365 17.365C18.055 17.2788 18.7738 17.25 19.5213 17.25H37.9213C47.0925 17.25 51.6925 21.85 51.6925 31.0213Z" stroke="#5F5E73" stroke-width="4.3125" stroke-miterlimit="10" stroke-linecap="round" stroke-linejoin="round"/>
<path d="M63.1927 19.5213V31.0213C63.1927 39.4738 59.3115 44.0163 51.5777 44.6775C51.664 43.9875 51.6927 43.2688 51.6927 42.5213V31.0213C51.6927 21.85 47.0927 17.25 37.9215 17.25H19.5215C18.774 17.25 18.0552 17.2788 17.3652 17.365C18.0265 9.63127 22.5977 5.75 31.0215 5.75H49.4215C58.5927 5.75 63.1927 10.35 63.1927 19.5213Z" stroke="#5F5E73" stroke-width="4.3125" stroke-miterlimit="10" stroke-linecap="round" stroke-linejoin="round"/>
<path d="M38.7996 38.0938H38.8254" stroke="#5F5E73" stroke-width="5.75" stroke-linecap="round" stroke-linejoin="round"/>
<path d="M28.7371 38.0938H28.7629" stroke="#5F5E73" stroke-width="5.75" stroke-linecap="round" stroke-linejoin="round"/>
<path d="M18.6746 38.0938H18.7004" stroke="#5F5E73" stroke-width="5.75" stroke-linecap="round" stroke-linejoin="round"/>
</svg>
