<svg width="42" height="42" viewBox="0 0 42 42" fill="none" xmlns="http://www.w3.org/2000/svg">
<rect opacity="0.25" x="0.516602" y="1.28857" width="40.9099" height="39.9992" rx="19" stroke="white"/>
<path fill-rule="evenodd" clip-rule="evenodd" d="M20.7695 18.5821L20.7998 19.0823L20.2951 19.021C18.458 18.7863 16.853 17.9901 15.4903 16.6529L14.8241 15.9894L14.6525 16.4794C14.2892 17.5716 14.5213 18.725 15.2784 19.5008C15.6821 19.9295 15.5913 19.9908 14.8948 19.7356C14.6525 19.6539 14.4406 19.5927 14.4204 19.6233C14.3497 19.6947 14.592 20.6236 14.7838 20.9911C15.0462 21.5015 15.5812 22.0016 16.1666 22.2977L16.6613 22.5324L16.0758 22.5426C15.5105 22.5426 15.4903 22.5529 15.5509 22.7672C15.7528 23.4307 16.5502 24.135 17.4385 24.4413L18.0643 24.6556L17.5193 24.9823C16.7117 25.4518 15.7629 25.7172 14.814 25.7376C14.3598 25.7478 13.9863 25.7887 13.9863 25.8193C13.9863 25.9214 15.2178 26.493 15.9345 26.7175C18.0845 27.381 20.6383 27.0952 22.5562 25.9622C23.9189 25.1558 25.2816 23.5532 25.9175 22.0016C26.2607 21.1748 26.6039 19.6641 26.6039 18.9394C26.6039 18.4698 26.6342 18.4086 27.1995 17.8472C27.5326 17.5205 27.8455 17.1633 27.9061 17.0612C28.007 16.8672 27.9969 16.8672 27.4821 17.0408C26.6241 17.347 26.503 17.3062 26.9269 16.8468C27.2399 16.5202 27.6133 15.9281 27.6133 15.7546C27.6133 15.724 27.4619 15.775 27.2903 15.8669C27.1086 15.969 26.7049 16.1221 26.402 16.214L25.857 16.3875L25.3624 16.0506C25.0898 15.8669 24.7062 15.6627 24.5044 15.6015C23.9896 15.4586 23.2022 15.479 22.7379 15.6423C21.4761 16.1017 20.6787 17.2857 20.7695 18.5821Z" fill="white"/>
</svg>
