<svg width="17" height="17" viewBox="0 0 17 17" fill="none" xmlns="http://www.w3.org/2000/svg">
<path d="M8.49967 16.4167C4.1273 16.4167 0.583008 12.8724 0.583008 8.50001C0.583008 4.12764 4.1273 0.583344 8.49967 0.583344C12.872 0.583344 16.4163 4.12764 16.4163 8.50001C16.4163 12.8724 12.872 16.4167 8.49967 16.4167ZM8.49967 14.8333C10.1794 14.8333 11.7903 14.1661 12.978 12.9784C14.1657 11.7906 14.833 10.1797 14.833 8.50001C14.833 6.82031 14.1657 5.2094 12.978 4.02167C11.7903 2.83394 10.1794 2.16668 8.49967 2.16668C6.81997 2.16668 5.20906 2.83394 4.02133 4.02167C2.8336 5.2094 2.16634 6.82031 2.16634 8.50001C2.16634 10.1797 2.8336 11.7906 4.02133 12.9784C5.20906 14.1661 6.81997 14.8333 8.49967 14.8333ZM7.71038 11.6667L4.35134 8.30763L5.47076 7.18822L7.71038 9.42784L12.188 4.94938L13.3083 6.0688L7.71038 11.6667Z" fill="black"/>
</svg>
